<svg width="450" height="450" xmlns="http://www.w3.org/2000/svg">
  <path
    d="M225 26l175 102.055v195.862L225 425.974 50 323.917V128.055L225 26zm0 35.05L81.065 145.746v160.481L225 390.924l143.935-84.698v-160.48L225 61.05z"
    fill="#478EFF" fill-rule="nonzero" />
  <path fill="#EBF5FF" d="M81.065 145.745L225 247.634l143.935-101.889L225 61.051z" />
  <path fill="#D9ECFF" d="M225 390.924v-143.29l143.935-101.889V306.23z" />
  <path fill="#FFF" d="M225 390.924v-143.29L81.065 145.741v160.485z" />
  <path fill="#1670FF" fill-rule="nonzero"
    d="M273.669 174.443L225 261.106l-48.669-86.663h34.172L225 199.254l14.497-24.811z" />
  <path fill="#478EFF" fill-rule="nonzero"
    d="M176.331 174.443L225 261.106l48.669-86.663h34.171l-81.131 146.381h-3.418L142.16 174.443z" />
</svg>