<svg width="420" height="420" xmlns="http://www.w3.org/2000/svg">
  <path
    d="M210 10l175 102.055v195.862L210 409.974 35 307.917V112.055L210 10zm0 35.05L66.065 129.746v160.481L210 374.924l143.935-84.698v-160.48L210 45.05z"
    fill="#478EFF" fill-rule="nonzero" />
  <path fill="#EBF5FF" d="M66.065 129.745L210 231.634l143.935-101.889L210 45.051z" />
  <path fill="#D9ECFF" d="M210 374.924v-143.29l143.935-101.889V290.23z" />
  <path fill="#FFF" d="M210 374.924v-143.29L66.065 129.741v160.485z" />
  <path fill="#1670FF" fill-rule="nonzero"
    d="M258.669 158.443L210 245.106l-48.669-86.663h34.172L210 183.254l14.497-24.811z" />
  <path fill="#478EFF" fill-rule="nonzero"
    d="M161.331 158.443L210 245.106l48.669-86.663h34.171l-81.131 146.381h-3.418L127.16 158.443z" />
</svg>